<?xml version="1.0" encoding="utf-8"?>
<!-- Generator: Adobe Illustrator 16.0.0, SVG Export Plug-In . SVG Version: 6.00 Build 0)  -->
<!DOCTYPE svg PUBLIC "-//W3C//DTD SVG 1.1//EN" "http://www.w3.org/Graphics/SVG/1.1/DTD/svg11.dtd">
<svg version="1.1" id="Layer_1" xmlns="http://www.w3.org/2000/svg" xmlns:xlink="http://www.w3.org/1999/xlink" x="0px" y="0px"
	 width="98px" height="12.164px" viewBox="9.323 53.918 98 12.164" enable-background="new 9.323 53.918 98 12.164"
	 xml:space="preserve">
<g>
	<path fill="#383838" d="M11.87,64.776c0,0.35-0.127,0.669-0.351,0.922c-0.223,0.256-0.509,0.384-0.859,0.384
		c-0.351,0-0.637-0.128-0.923-0.351c-0.286-0.255-0.414-0.573-0.414-0.892v-8.628c0-0.668,0.032-1.146,0.128-1.465
		c0.063-0.351,0.254-0.573,0.509-0.637c0.287-0.095,0.509-0.127,0.701-0.127l0.414,0.032c0.127,0,0.223,0.063,0.318,0.127
		c0.095,0.064,0.159,0.127,0.191,0.223l0.127,0.318c0.35-0.223,0.732-0.382,1.146-0.509c0.414-0.128,0.892-0.191,1.369-0.191
		c1.242,0,2.324,0.446,3.248,1.369s1.369,1.974,1.369,3.248c0,1.242-0.445,2.325-1.369,3.215c-0.923,0.892-2.006,1.338-3.248,1.338
		c-0.509,0-0.923-0.032-1.273-0.128c-0.35-0.095-0.732-0.255-1.083-0.509V64.776z M12.061,58.536c0,0.573,0.223,1.051,0.637,1.496
		c0.414,0.446,0.923,0.636,1.528,0.636c0.604,0,1.114-0.19,1.528-0.604c0.414-0.414,0.604-0.924,0.604-1.497
		c0-0.573-0.222-1.083-0.604-1.496c-0.414-0.415-0.924-0.637-1.528-0.637c-0.605,0-1.114,0.191-1.528,0.605
		C12.284,57.421,12.061,57.93,12.061,58.536z"/>
	<path fill="#383838" d="M24.829,55.128c0-0.254,0.127-0.541,0.382-0.764c0.255-0.255,0.541-0.382,0.859-0.382
		s0.605,0.127,0.86,0.382c0.255,0.254,0.382,0.509,0.382,0.796v3.216c0,1.241-0.064,2.101-0.223,2.547
		c-0.127,0.446-0.414,0.891-0.86,1.305c-0.159,0.159-0.382,0.318-0.7,0.478s-0.637,0.287-0.987,0.351
		c-0.16,0.032-0.35,0.063-0.509,0.096c-0.16,0.031-0.351,0.031-0.573,0.031c-0.478,0-0.924-0.063-1.306-0.159
		c-0.382-0.127-0.859-0.35-1.337-0.668c-0.509-0.351-0.86-0.796-1.115-1.305c-0.254-0.543-0.35-1.116-0.35-1.752v-4.171
		c0-0.254,0.127-0.541,0.382-0.795c0.255-0.255,0.542-0.382,0.892-0.382c0.351,0,0.637,0.127,0.86,0.382
		c0.254,0.223,0.382,0.478,0.382,0.795v4.108c0,0.381,0.16,0.732,0.446,1.05c0.287,0.288,0.637,0.447,1.051,0.447
		c0.414,0,0.795-0.128,1.082-0.415c0.287-0.287,0.414-0.637,0.414-1.019v-4.171H24.829z"/>
	<path fill="#383838" d="M41.034,61.974c0,0.287-0.127,0.542-0.382,0.765c-0.254,0.223-0.541,0.351-0.859,0.351
		c-0.319,0-0.605-0.128-0.892-0.351c-0.255-0.255-0.382-0.51-0.382-0.765V58.79v-0.318c0-0.159,0-0.318,0-0.509
		c0-0.191-0.032-0.382-0.127-0.637c-0.064-0.318-0.255-0.573-0.509-0.732c-0.255-0.159-0.542-0.223-0.828-0.223
		c-0.223,0-0.446,0.063-0.669,0.19c-0.223,0.128-0.414,0.351-0.509,0.637s-0.127,0.605-0.127,0.987v0.414v3.375
		c0,0.255-0.127,0.542-0.382,0.765c-0.255,0.255-0.542,0.382-0.86,0.382s-0.605-0.127-0.892-0.351
		c-0.254-0.254-0.382-0.509-0.382-0.796v-3.375v-0.223c0-0.159,0-0.318,0-0.478c0-0.16-0.032-0.414-0.127-0.701
		c-0.063-0.287-0.287-0.509-0.637-0.701c-0.191-0.096-0.414-0.127-0.637-0.127s-0.478,0.063-0.701,0.19
		c-0.254,0.128-0.414,0.351-0.542,0.701c-0.095,0.35-0.127,0.701-0.127,1.115v0.382v3.215c0,0.255-0.127,0.542-0.382,0.765
		c-0.254,0.223-0.509,0.382-0.828,0.382c-0.318,0-0.605-0.127-0.891-0.351c-0.255-0.254-0.382-0.509-0.382-0.796v-4.107
		c0-0.668,0.127-1.242,0.35-1.783c0.223-0.509,0.701-0.987,1.401-1.464c0.7-0.445,1.432-0.701,2.196-0.701
		c0.446,0,0.86,0.096,1.242,0.255l0.796,0.382c0.128,0.063,0.223,0.127,0.287,0.159c0.063,0.032,0.159,0.127,0.286,0.223
		c0.414-0.318,0.86-0.573,1.337-0.732c0.254-0.096,0.478-0.16,0.701-0.191c0.223-0.032,0.445-0.064,0.7-0.064
		c0.605,0,1.242,0.159,1.91,0.509c0.668,0.351,1.146,0.828,1.433,1.464c0.287,0.637,0.414,1.401,0.414,2.324V61.974z"/>
</g>
<g>
	<path fill="#191919" d="M45.014,64.776c0,0.35-0.127,0.669-0.35,0.922c-0.223,0.256-0.509,0.384-0.859,0.384
		c-0.351,0-0.637-0.128-0.924-0.351c-0.286-0.255-0.414-0.542-0.414-0.86v-8.66c0-0.668,0.031-1.146,0.127-1.465
		c0.063-0.351,0.254-0.573,0.509-0.637c0.286-0.095,0.509-0.127,0.701-0.127l0.414,0.032c0.127,0,0.223,0.063,0.318,0.127
		s0.159,0.127,0.191,0.223l0.127,0.318c0.35-0.223,0.732-0.382,1.146-0.509c0.414-0.128,0.891-0.191,1.369-0.191
		c1.242,0,2.325,0.446,3.248,1.369c0.923,0.923,1.369,1.974,1.369,3.248c0,1.242-0.446,2.325-1.369,3.215
		c-0.923,0.892-2.006,1.338-3.248,1.338c-0.509,0-0.923-0.032-1.273-0.128c-0.35-0.095-0.732-0.255-1.083-0.509V64.776z
		 M45.205,58.536c0,0.573,0.223,1.051,0.637,1.496c0.414,0.446,0.923,0.636,1.528,0.636s1.115-0.19,1.528-0.604
		c0.414-0.414,0.605-0.924,0.605-1.497c0-0.573-0.223-1.083-0.605-1.496c-0.414-0.415-0.923-0.637-1.528-0.637
		s-1.114,0.191-1.528,0.605C45.428,57.421,45.205,57.93,45.205,58.536z"/>
	<path fill="#191919" d="M57.973,55.128c0-0.254,0.127-0.541,0.382-0.764c0.255-0.255,0.542-0.382,0.86-0.382
		s0.605,0.127,0.86,0.382c0.254,0.254,0.382,0.509,0.382,0.796v3.216c0,1.241-0.063,2.101-0.223,2.547
		c-0.128,0.446-0.414,0.891-0.86,1.305c-0.159,0.159-0.382,0.318-0.701,0.478s-0.637,0.287-0.987,0.351
		c-0.159,0.032-0.35,0.063-0.509,0.096c-0.159,0.031-0.351,0.031-0.573,0.031c-0.478,0-0.923-0.063-1.306-0.159
		c-0.382-0.127-0.859-0.35-1.337-0.668c-0.51-0.351-0.86-0.796-1.114-1.305c-0.255-0.543-0.35-1.116-0.35-1.752v-4.171
		c0-0.254,0.127-0.541,0.381-0.795c0.255-0.255,0.542-0.382,0.892-0.382c0.351,0,0.637,0.127,0.86,0.382
		c0.255,0.223,0.382,0.478,0.382,0.795v4.108c0,0.381,0.159,0.732,0.445,1.05c0.287,0.288,0.637,0.447,1.051,0.447
		s0.796-0.128,1.083-0.415c0.287-0.287,0.414-0.637,0.414-1.019v-4.171H57.973z"/>
	<path fill="#191919" d="M74.179,61.974c0,0.287-0.128,0.542-0.382,0.765c-0.255,0.223-0.542,0.351-0.86,0.351
		s-0.604-0.128-0.892-0.351c-0.254-0.255-0.382-0.51-0.382-0.765V58.79v-0.318c0-0.159,0-0.318,0-0.509
		c0-0.191-0.031-0.382-0.128-0.637c-0.062-0.318-0.253-0.573-0.509-0.732c-0.255-0.159-0.54-0.223-0.827-0.223
		c-0.224,0-0.446,0.063-0.669,0.19c-0.224,0.128-0.414,0.351-0.511,0.637c-0.094,0.287-0.126,0.605-0.126,0.987v0.414v3.375
		c0,0.255-0.127,0.542-0.383,0.765c-0.254,0.255-0.54,0.382-0.859,0.382c-0.318,0-0.604-0.127-0.892-0.351
		c-0.255-0.254-0.382-0.509-0.382-0.796v-3.375v-0.223c0-0.159,0-0.318,0-0.478c0-0.16-0.032-0.414-0.127-0.701
		c-0.064-0.287-0.287-0.509-0.637-0.701c-0.191-0.096-0.414-0.127-0.638-0.127c-0.223,0-0.478,0.063-0.7,0.19
		c-0.255,0.128-0.414,0.351-0.54,0.701c-0.097,0.35-0.128,0.701-0.128,1.115v0.382v3.215c0,0.255-0.128,0.542-0.383,0.765
		c-0.254,0.255-0.541,0.382-0.859,0.382s-0.605-0.127-0.892-0.351c-0.254-0.254-0.382-0.509-0.382-0.796v-4.107
		c0-0.668,0.128-1.242,0.35-1.783c0.224-0.509,0.701-0.987,1.401-1.464c0.7-0.445,1.433-0.701,2.197-0.701
		c0.446,0,0.859,0.096,1.241,0.255l0.796,0.382c0.128,0.063,0.224,0.127,0.287,0.159s0.159,0.127,0.286,0.223
		c0.414-0.318,0.859-0.573,1.337-0.732c0.256-0.096,0.478-0.16,0.701-0.191c0.223-0.032,0.445-0.064,0.7-0.064
		c0.605,0,1.242,0.159,1.91,0.509c0.669,0.351,1.146,0.828,1.433,1.464c0.287,0.637,0.414,1.401,0.414,2.324v3.725H74.179z"/>
</g>
<g>
	<path fill="#383838" d="M78.158,64.776c0,0.35-0.127,0.669-0.351,0.922c-0.222,0.256-0.509,0.384-0.858,0.384
		c-0.351,0-0.637-0.128-0.924-0.351c-0.287-0.255-0.415-0.542-0.415-0.86v-8.66c0-0.668,0.033-1.146,0.128-1.465
		c0.064-0.351,0.256-0.573,0.509-0.637c0.287-0.095,0.511-0.127,0.702-0.127l0.413,0.032c0.127,0,0.224,0.063,0.318,0.127
		c0.096,0.064,0.159,0.127,0.19,0.223l0.128,0.318c0.351-0.223,0.732-0.382,1.146-0.509c0.413-0.128,0.892-0.191,1.369-0.191
		c1.241,0,2.323,0.446,3.247,1.369c0.924,0.891,1.37,1.974,1.37,3.248c0,1.242-0.446,2.325-1.37,3.215
		c-0.924,0.892-2.006,1.338-3.247,1.338c-0.51,0-0.924-0.032-1.274-0.128c-0.35-0.095-0.731-0.255-1.082-0.509V64.776z
		 M78.35,58.536c0,0.573,0.223,1.051,0.637,1.496c0.413,0.446,0.923,0.636,1.528,0.636c0.604,0,1.114-0.19,1.527-0.604
		c0.415-0.414,0.605-0.924,0.605-1.497c0-0.573-0.19-1.083-0.605-1.496c-0.413-0.415-0.923-0.637-1.527-0.637
		c-0.605,0-1.115,0.191-1.528,0.605C78.572,57.421,78.35,57.93,78.35,58.536z"/>
	<path fill="#383838" d="M91.117,55.128c0-0.254,0.128-0.541,0.381-0.764c0.256-0.255,0.543-0.382,0.861-0.382
		c0.317,0,0.604,0.127,0.858,0.382c0.255,0.254,0.383,0.509,0.383,0.796v3.216c0,1.241-0.064,2.101-0.224,2.547
		c-0.127,0.446-0.414,0.891-0.859,1.305c-0.158,0.159-0.383,0.318-0.701,0.478s-0.637,0.287-0.986,0.351
		c-0.159,0.032-0.35,0.063-0.509,0.096c-0.159,0.031-0.351,0.031-0.574,0.031c-0.478,0-0.923-0.063-1.305-0.159
		c-0.382-0.095-0.859-0.35-1.338-0.668c-0.509-0.351-0.858-0.796-1.114-1.305c-0.254-0.543-0.35-1.116-0.35-1.752v-4.171
		c0-0.254,0.128-0.541,0.382-0.795c0.255-0.255,0.542-0.382,0.892-0.382s0.637,0.127,0.859,0.382
		c0.255,0.223,0.382,0.478,0.382,0.795v4.108c0,0.381,0.159,0.732,0.446,1.05c0.287,0.288,0.637,0.447,1.051,0.447
		c0.413,0,0.796-0.128,1.082-0.415c0.286-0.287,0.414-0.637,0.414-1.019v-4.171H91.117z"/>
	<path fill="#383838" d="M107.322,61.974c0,0.287-0.127,0.542-0.382,0.765c-0.254,0.223-0.541,0.351-0.859,0.351
		s-0.605-0.128-0.892-0.351c-0.254-0.255-0.382-0.51-0.382-0.765V58.79v-0.318c0-0.159,0-0.318,0-0.509
		c0-0.191-0.031-0.382-0.128-0.637c-0.062-0.318-0.254-0.573-0.509-0.732c-0.256-0.159-0.541-0.223-0.827-0.223
		c-0.225,0-0.446,0.063-0.669,0.19c-0.224,0.128-0.414,0.351-0.511,0.637c-0.095,0.287-0.127,0.605-0.127,0.987v0.414v3.375
		c0,0.255-0.127,0.542-0.382,0.765c-0.255,0.255-0.541,0.382-0.859,0.382s-0.605-0.127-0.892-0.351
		c-0.255-0.254-0.383-0.509-0.383-0.796v-3.375v-0.223c0-0.159,0-0.318,0-0.478c0-0.16-0.031-0.414-0.127-0.701
		c-0.063-0.287-0.286-0.509-0.637-0.701c-0.191-0.096-0.413-0.127-0.637-0.127c-0.223,0-0.478,0.063-0.7,0.19
		c-0.256,0.128-0.415,0.351-0.541,0.701c-0.096,0.35-0.127,0.701-0.127,1.115v0.382v3.215c0,0.255-0.128,0.542-0.384,0.765
		c-0.253,0.255-0.54,0.382-0.858,0.382s-0.605-0.127-0.892-0.351c-0.255-0.254-0.382-0.509-0.382-0.796v-4.107
		c0-0.668,0.127-1.242,0.35-1.783c0.223-0.509,0.701-0.987,1.401-1.464c0.699-0.445,1.433-0.701,2.197-0.701
		c0.445,0,0.858,0.096,1.241,0.255l0.796,0.382c0.127,0.063,0.223,0.127,0.286,0.159c0.064,0.032,0.159,0.127,0.287,0.223
		c0.414-0.318,0.859-0.573,1.337-0.732c0.255-0.096,0.478-0.16,0.701-0.191c0.223-0.032,0.444-0.064,0.7-0.064
		c0.605,0,1.242,0.159,1.91,0.509c0.668,0.351,1.146,0.828,1.433,1.464s0.414,1.401,0.414,2.324v3.725H107.322z"/>
</g>
<circle fill="#F7B703" cx="41.799" cy="58.567" r="1.974"/>
<circle fill="#F7B703" cx="75.102" cy="58.567" r="1.974"/>
</svg>
